<svg xmlns="http://www.w3.org/2000/svg" width="375" viewBox="0 0 375 375" height="375" version="1.0"><defs><clipPath id="a"><path d="M 91 37.5 L 284 37.5 L 284 270 L 91 270 Z M 91 37.5"/></clipPath></defs><g clip-path="url(#a)"><path d="M 95.585938 246.933594 L 183.410156 234.152344 L 183.410156 266.4375 C 183.410156 268.519531 185.15625 270.214844 187.296875 270.214844 C 189.4375 270.214844 191.175781 268.519531 191.175781 266.4375 L 191.175781 234.152344 L 279.019531 246.929688 C 280.535156 247.117188 281.941406 246.503906 282.773438 245.34375 C 283.625 244.148438 283.695312 242.570312 282.957031 241.3125 L 246.386719 178.882812 L 265.605469 178.882812 C 267.042969 178.882812 268.351562 178.121094 269.027344 176.894531 C 269.710938 175.648438 269.636719 174.152344 268.828125 172.984375 L 222.878906 106.558594 L 233.445312 106.558594 C 234.910156 106.558594 236.230469 105.769531 236.898438 104.507812 C 237.574219 103.222656 237.453125 101.699219 236.574219 100.535156 L 190.300781 39 C 190.222656 38.90625 190.136719 38.816406 190.03125 38.707031 C 189.9375 38.617188 189.847656 38.539062 189.683594 38.40625 L 188.738281 37.875 C 188.738281 37.875 188.507812 37.796875 188.367188 37.753906 L 187.710938 37.632812 C 187.710938 37.632812 187.421875 37.605469 187.296875 37.605469 C 187.199219 37.605469 187.101562 37.613281 186.960938 37.628906 C 186.828125 37.632812 186.703125 37.648438 186.5625 37.675781 C 186.472656 37.691406 186.382812 37.714844 186.125 37.792969 C 186.027344 37.820312 185.9375 37.847656 185.796875 37.90625 L 185.535156 38.027344 C 185.535156 38.027344 185.265625 38.164062 185.125 38.265625 L 184.902344 38.425781 C 184.902344 38.425781 184.664062 38.613281 184.566406 38.710938 C 184.480469 38.796875 184.402344 38.878906 184.167969 39.148438 L 138.019531 100.535156 C 137.148438 101.699219 137.027344 103.21875 137.695312 104.507812 C 138.367188 105.773438 139.691406 106.558594 141.15625 106.558594 L 151.71875 106.558594 L 105.765625 172.988281 C 104.960938 174.160156 104.882812 175.65625 105.570312 176.890625 C 106.242188 178.117188 107.550781 178.882812 108.984375 178.882812 L 128.207031 178.882812 L 91.640625 241.316406 C 90.902344 242.570312 90.976562 244.148438 91.820312 245.347656 C 92.648438 246.511719 94.023438 247.148438 95.585938 246.933594 Z M 162.242188 104.886719 C 163.050781 103.71875 163.125 102.222656 162.4375 100.976562 C 161.757812 99.757812 160.449219 98.992188 159.019531 98.992188 L 148.808594 98.992188 L 187.300781 47.789062 L 225.789062 98.992188 L 215.574219 98.992188 C 214.144531 98.992188 212.84375 99.75 212.160156 100.976562 C 211.472656 102.222656 211.546875 103.722656 212.359375 104.890625 L 258.3125 171.3125 L 239.699219 171.3125 C 238.328125 171.3125 237.042969 172.027344 236.351562 173.183594 C 235.644531 174.347656 235.640625 175.796875 236.328125 176.976562 L 272.25 238.296875 L 191.179688 226.503906 L 191.179688 219.757812 L 211.542969 203.230469 C 212.34375 202.582031 212.832031 201.660156 212.917969 200.644531 C 213.007812 199.632812 212.683594 198.648438 212.011719 197.875 C 210.683594 196.355469 208.152344 196.136719 206.5625 197.421875 L 191.179688 209.910156 L 191.179688 185.699219 L 211.542969 169.171875 C 212.34375 168.519531 212.832031 167.601562 212.921875 166.597656 C 213.015625 165.582031 212.695312 164.59375 212.019531 163.820312 C 210.691406 162.285156 208.148438 162.078125 206.5625 163.355469 L 191.179688 175.851562 L 191.179688 151.640625 L 211.535156 135.117188 C 212.335938 134.46875 212.832031 133.550781 212.921875 132.527344 C 213.007812 131.519531 212.6875 130.535156 212.019531 129.765625 C 210.691406 128.234375 208.148438 128.023438 206.5625 129.300781 L 191.179688 141.792969 L 191.179688 106.976562 C 191.179688 104.894531 189.4375 103.199219 187.300781 103.199219 C 185.15625 103.199219 183.414062 104.894531 183.414062 106.976562 L 183.414062 141.792969 L 168.03125 129.300781 C 166.453125 128.015625 163.898438 128.246094 162.582031 129.765625 C 161.90625 130.539062 161.585938 131.527344 161.679688 132.539062 C 161.765625 133.542969 162.257812 134.460938 163.058594 135.117188 L 183.414062 151.640625 L 183.414062 175.855469 L 168.03125 163.363281 C 166.460938 162.074219 163.898438 162.296875 162.582031 163.824219 C 161.90625 164.597656 161.585938 165.585938 161.679688 166.597656 C 161.765625 167.605469 162.257812 168.519531 163.058594 169.179688 L 183.414062 185.699219 L 183.414062 209.914062 L 168.027344 197.421875 C 166.445312 196.148438 163.90625 196.359375 162.582031 197.882812 C 161.914062 198.652344 161.59375 199.636719 161.679688 200.648438 C 161.765625 201.660156 162.257812 202.582031 163.058594 203.238281 L 183.414062 219.761719 L 183.414062 226.507812 L 102.351562 238.300781 L 138.273438 176.976562 C 138.960938 175.800781 138.949219 174.351562 138.246094 173.183594 C 137.550781 172.03125 136.269531 171.316406 134.898438 171.316406 L 116.289062 171.316406 Z M 162.242188 104.886719"/></g><g><g><g><path d="M 8.90625 -18.390625 L 8.90625 0 L 2.15625 0 L 2.15625 -29.640625 L 8.90625 -29.640625 L 20.6875 -11.25 L 20.765625 -11.25 L 20.765625 -29.640625 L 27.515625 -29.640625 L 27.515625 0 L 20.765625 0 L 8.984375 -18.390625 Z M 8.90625 -18.390625" transform="translate(66.91 325.691)"/></g></g></g><g><g><g><path d="M 24.890625 0 L 20.15625 -16.625 L 15.40625 0 L 7.90625 0 L -0.53125 -29.640625 L 6.96875 -29.640625 L 12.03125 -9.296875 L 12.21875 -9.296875 L 17.609375 -29.640625 L 22.703125 -29.640625 L 28.09375 -9.296875 L 28.265625 -9.296875 L 33.328125 -29.640625 L 40.8125 -29.640625 L 32.359375 0 Z M 24.890625 0" transform="translate(110.955 325.691)"/></g></g></g><g><g><g><path d="M 13.078125 -30.171875 C 14.679688 -30.171875 16.25 -29.9375 17.78125 -29.46875 C 19.3125 -29 20.445312 -28.539062 21.1875 -28.09375 L 22.265625 -27.375 L 19.546875 -21.984375 C 19.328125 -22.128906 19.023438 -22.3125 18.640625 -22.53125 C 18.253906 -22.757812 17.535156 -23.066406 16.484375 -23.453125 C 15.429688 -23.835938 14.453125 -24.03125 13.546875 -24.03125 C 12.421875 -24.03125 11.550781 -23.789062 10.9375 -23.3125 C 10.320312 -22.832031 10.015625 -22.1875 10.015625 -21.375 C 10.015625 -20.96875 10.160156 -20.585938 10.453125 -20.234375 C 10.742188 -19.890625 11.234375 -19.519531 11.921875 -19.125 C 12.617188 -18.726562 13.226562 -18.410156 13.75 -18.171875 C 14.28125 -17.929688 15.097656 -17.570312 16.203125 -17.09375 C 18.117188 -16.28125 19.753906 -15.171875 21.109375 -13.765625 C 22.460938 -12.367188 23.140625 -10.785156 23.140625 -9.015625 C 23.140625 -7.316406 22.832031 -5.832031 22.21875 -4.5625 C 21.601562 -3.289062 20.765625 -2.296875 19.703125 -1.578125 C 18.640625 -0.859375 17.457031 -0.328125 16.15625 0.015625 C 14.863281 0.359375 13.46875 0.53125 11.96875 0.53125 C 10.664062 0.53125 9.390625 0.398438 8.140625 0.140625 C 6.898438 -0.117188 5.859375 -0.445312 5.015625 -0.84375 C 4.179688 -1.238281 3.429688 -1.628906 2.765625 -2.015625 C 2.097656 -2.398438 1.609375 -2.722656 1.296875 -2.984375 L 0.828125 -3.375 L 4.203125 -9.046875 C 4.492188 -8.804688 4.890625 -8.5 5.390625 -8.125 C 5.890625 -7.757812 6.78125 -7.265625 8.0625 -6.640625 C 9.34375 -6.023438 10.472656 -5.71875 11.453125 -5.71875 C 14.304688 -5.71875 15.734375 -6.6875 15.734375 -8.625 C 15.734375 -9.03125 15.628906 -9.40625 15.421875 -9.75 C 15.222656 -10.101562 14.863281 -10.453125 14.34375 -10.796875 C 13.832031 -11.140625 13.378906 -11.410156 12.984375 -11.609375 C 12.585938 -11.816406 11.941406 -12.128906 11.046875 -12.546875 C 10.148438 -12.972656 9.484375 -13.289062 9.046875 -13.5 C 7.253906 -14.382812 5.863281 -15.492188 4.875 -16.828125 C 3.894531 -18.160156 3.40625 -19.59375 3.40625 -21.125 C 3.40625 -23.78125 4.382812 -25.953125 6.34375 -27.640625 C 8.3125 -29.328125 10.554688 -30.171875 13.078125 -30.171875 Z M 13.078125 -30.171875" transform="translate(165.598 325.691)"/></g></g></g><g><g><g><path d="M 8.90625 -29.640625 L 8.90625 -5.921875 L 19.109375 -5.921875 L 19.109375 0 L 2.15625 0 L 2.15625 -29.640625 Z M 8.90625 -29.640625" transform="translate(204.112 325.691)"/></g></g></g><g><g><g><path d="M 0.28125 -23.703125 L 0.28125 -29.640625 L 21.125 -29.640625 L 21.125 -23.703125 L 14.078125 -23.703125 L 14.078125 0 L 7.328125 0 L 7.328125 -23.703125 Z M 0.28125 -23.703125" transform="translate(238.783 325.691)"/></g></g></g><g><g><g><path d="M 2.15625 -29.640625 L 12.75 -29.640625 C 15.601562 -29.640625 17.925781 -28.878906 19.71875 -27.359375 C 21.519531 -25.835938 22.421875 -23.660156 22.421875 -20.828125 C 22.421875 -18.648438 21.875 -16.820312 20.78125 -15.34375 C 19.6875 -13.875 18.207031 -12.84375 16.34375 -12.25 L 26.546875 0 L 17.953125 0 L 8.90625 -11.703125 L 8.90625 0 L 2.15625 0 Z M 8.90625 -16.484375 L 9.703125 -16.484375 C 10.328125 -16.484375 10.851562 -16.492188 11.28125 -16.515625 C 11.707031 -16.546875 12.195312 -16.628906 12.75 -16.765625 C 13.300781 -16.910156 13.742188 -17.113281 14.078125 -17.375 C 14.410156 -17.644531 14.695312 -18.03125 14.9375 -18.53125 C 15.175781 -19.039062 15.296875 -19.65625 15.296875 -20.375 C 15.296875 -21.09375 15.175781 -21.703125 14.9375 -22.203125 C 14.695312 -22.703125 14.410156 -23.082031 14.078125 -23.34375 C 13.742188 -23.613281 13.300781 -23.816406 12.75 -23.953125 C 12.195312 -24.097656 11.707031 -24.179688 11.28125 -24.203125 C 10.851562 -24.234375 10.328125 -24.25 9.703125 -24.25 L 8.90625 -24.25 Z M 8.90625 -16.484375" transform="translate(274.568 325.691)"/></g></g></g></svg>